<svg width="124" height="31" viewBox="0 0 124 31" fill="none" xmlns="http://www.w3.org/2000/svg">
<path d="M119.516 15.8561C118.675 17.1575 117.516 18.1826 116.039 18.9306C114.562 19.679 112.962 20.0532 111.238 20.0532C108.567 20.0532 106.305 19.1617 104.454 17.3786C102.786 15.8431 101.952 13.7999 101.952 11.2493C101.952 9.68731 102.384 8.25593 103.246 6.95462C104.108 5.65281 105.267 4.64419 106.722 3.92874C108.178 3.2128 109.753 2.85507 111.449 2.85507C113.132 2.85507 114.694 3.24532 116.135 4.0263C117.576 4.80729 118.71 5.85143 119.538 7.15924C120.364 8.46756 120.778 9.91546 120.778 11.5029C120.777 13.1034 120.357 14.5548 119.516 15.8561ZM98.9418 0.489606V30.0785H102.164V18.3132C102.899 19.7666 104.121 20.8953 105.832 21.6993C107.541 22.5038 109.315 22.906 111.153 22.906C113.414 22.906 115.538 22.4042 117.523 21.4021C119.508 20.4 121.084 19.0266 122.251 17.282C123.416 15.5379 123.999 13.6243 123.999 11.5415C123.999 10.5393 123.865 9.54322 123.597 8.55361C123.454 8.0588 123.294 7.59702 123.117 7.16725C122.942 6.73799 122.746 6.33774 122.535 5.96651C122.321 5.59578 122.099 5.26357 121.865 4.97038C121.631 4.6777 121.402 4.44006 121.175 4.25794C118.287 1.43319 115.037 0.020813 111.426 0.020813C110.804 0.020813 110.197 0.0598378 109.61 0.137886C109.022 0.215935 108.417 0.34001 107.794 0.509115C106.59 0.808801 105.457 1.2846 104.395 1.936C103.333 2.58741 102.519 3.36239 101.952 4.26144V0.489606H98.9418ZM93.4725 0.489606H90.2505V12.0478C90.2505 14.3647 89.7702 16.1413 88.8107 17.3776C88.1199 18.2371 87.2657 18.8975 86.2492 19.3598C85.2333 19.8216 84.1538 20.0527 83.0109 20.0527C81.6845 20.0527 80.4776 19.7791 79.3911 19.2327C78.3041 18.6859 77.4434 17.9049 76.8084 16.8898C76.3705 16.2389 76.0888 15.5264 75.9613 14.752C75.8337 13.9775 75.7708 13.0759 75.7708 12.0478V0.489606H72.5482V12.0493C72.5482 13.6898 72.672 15.0922 72.9194 16.2574C73.1658 17.4226 73.6087 18.3302 74.2441 18.9811C75.1342 19.9312 76.0177 20.6926 76.8936 21.2655C77.7701 21.8389 78.678 22.2551 79.6185 22.5153C80.5579 22.7754 81.544 22.906 82.5757 22.906C83.7061 22.906 84.7806 22.7634 85.7982 22.4783C86.8158 22.1931 87.7129 21.7718 88.4905 21.214C88.928 20.9028 89.2959 20.5756 89.5928 20.2319C89.8896 19.8886 90.1718 19.4769 90.4405 18.9971V22.3977H93.472V0.489606H93.4725ZM47.6085 7.23729C48.4063 5.90347 49.5232 4.8398 50.9575 4.04581C52.3924 3.25182 53.9576 2.85507 55.6535 2.85507C56.8263 2.85507 57.9567 3.0632 59.0453 3.47946C60.1335 3.89622 61.1147 4.48809 61.9917 5.25607C63.8434 6.88308 64.7692 8.89332 64.7692 11.2883C64.7692 12.8628 64.3839 14.3202 63.6138 15.661C62.8431 17.0014 61.755 18.0685 60.3489 18.8625C58.9422 19.6565 57.3771 20.0532 55.6535 20.0532C54.014 20.0532 52.4803 19.6755 51.0525 18.9206C49.6252 18.1661 48.4942 17.1409 47.6606 15.8461C46.827 14.5513 46.4103 13.13 46.4103 11.581C46.4108 10.0195 46.8096 8.57112 47.6085 7.23729ZM67.016 7.03117C66.3664 5.65131 65.4584 4.43105 64.2921 3.36989C63.1259 2.30923 61.7974 1.48572 60.3066 0.899861C58.8152 0.313997 57.2648 0.021313 55.6535 0.021313C53.3921 0.021313 51.3005 0.538636 49.3783 1.57378C47.456 2.60842 45.9446 4.0178 44.8424 5.8009C43.7402 7.58451 43.1888 9.51121 43.1888 11.581C43.1888 13.6118 43.7613 15.4994 44.9059 17.2435C46.0499 18.9881 47.5841 20.3679 49.5063 21.3836C51.428 22.3987 53.4772 22.9065 55.654 22.9065C57.8585 22.9065 59.9147 22.3762 61.8229 21.315C63.731 20.2544 65.2359 18.829 66.3376 17.0389C67.4404 15.2488 67.9917 13.3321 67.9917 11.2878C67.9912 9.8299 67.6661 8.41102 67.016 7.03117ZM31.0199 22.3982H34.2424V10.1446C34.2424 8.73722 34.3906 7.63654 34.6874 6.84155C34.9843 6.04706 35.6485 5.25206 36.6802 4.45757C37.3162 3.96226 37.98 3.58453 38.673 3.32387C39.3649 3.0632 40.1285 2.93312 40.9621 2.93312V0.021313C39.2238 0.021313 37.7857 0.327503 36.6482 0.939382C35.5107 1.55226 34.6521 2.45732 34.0731 3.65607V0.490106H31.0204V22.3982H31.0199ZM5.28673 7.06168C6.08015 5.77989 7.15632 4.75825 8.51632 3.99678C9.87632 3.23581 11.3497 2.85507 12.9366 2.85507C14.6504 2.85507 16.2476 3.23581 17.7275 3.99678C19.208 4.75825 20.3656 5.78689 21.2013 7.0812C22.0371 8.376 22.4555 9.83691 22.4555 11.4639C22.4555 12.2059 22.3421 12.9408 22.1153 13.6698C21.8889 14.3987 21.5769 15.0947 21.1807 15.7586C20.7835 16.422 20.3092 17.0274 19.7561 17.5737C18.0564 19.2267 15.8818 20.0532 13.2334 20.0532C11.4762 20.0532 9.89369 19.653 8.48376 18.8525C7.07437 18.0525 5.99115 16.9788 5.233 15.6315C4.47539 14.2847 4.09656 12.8108 4.09656 11.2098C4.0971 9.72634 4.4933 8.34398 5.28673 7.06168ZM25.5505 0.489606H22.4555V4.75025C22.0165 3.98127 21.4727 3.30736 20.8231 2.7275C20.1729 2.14764 19.4169 1.64932 18.5541 1.23206C16.8446 0.424562 14.9929 0.020813 13.0006 0.020813C11.7703 0.020813 10.6052 0.173408 9.50294 0.479598C8.40018 0.785287 7.31585 1.2801 6.2489 1.96352C5.18142 2.64694 4.14651 3.57452 3.14306 4.74625C2.60579 5.28008 2.09292 6.19765 1.60612 7.49945C1.11824 8.80126 0.874023 10.1356 0.874023 11.5024C0.874023 13.0904 1.18825 14.5809 1.81778 15.9742C2.44623 17.3671 3.37586 18.6104 4.60508 19.7035C5.77839 20.7062 7.12104 21.4906 8.63355 22.0565C10.145 22.6223 11.6575 22.906 13.17 22.906C15.134 22.906 16.9927 22.4873 18.7451 21.6507C20.4975 20.8137 21.7343 19.623 22.455 18.0785V19.2708C22.455 20.4175 22.3915 21.3651 22.2634 22.1145C22.137 22.8635 21.8537 23.603 21.4157 24.3324C20.638 25.5572 19.5429 26.4952 18.1297 27.1467C16.7165 27.7981 15.2181 28.1238 13.6356 28.1238C9.79111 28.1238 6.87302 26.3912 4.88023 22.9255H1.74289C2.19496 24.515 3.00032 25.9124 4.15953 27.1176C5.31819 28.3224 6.71023 29.2675 8.33507 29.9514C9.96045 30.6353 11.6428 30.9775 13.3811 30.9775C14.5256 30.9775 15.6881 30.8339 16.8685 30.5473C18.0483 30.2606 19.1331 29.8533 20.1225 29.326C21.1118 28.7982 21.9883 28.1563 22.7513 27.4008C23.9664 26.2021 24.7365 25.0363 25.0621 23.9026C25.3872 22.7689 25.5494 21.225 25.5494 19.2708V0.489606H25.5505Z" fill="#25408F"/>
</svg>
