<svg width="281" height="31" viewBox="0 0 281 31" fill="none" xmlns="http://www.w3.org/2000/svg">
<path d="M280.722 7.3437V1.54059H245.351V29.4014H280.722V23.5983H253.575V18.3726H276.611V12.569H253.575V7.3437H280.722ZM229.03 12.613L213.849 12.586V7.35971L229.03 7.3327C231.092 7.3327 232.763 8.51443 232.763 9.97234C232.763 11.4317 231.092 12.613 229.03 12.613ZM228.604 1.5566H205.626V29.4179H213.849V18.3886H229.074C230.027 18.3886 230.88 18.293 231.659 18.1304C237.026 17.2063 240.997 13.9053 240.997 9.97284C240.997 5.32444 235.448 1.5566 228.604 1.5566ZM179.862 24.5859C172.727 24.5859 166.943 20.5034 166.943 15.4673C166.943 10.4311 172.727 6.34858 179.862 6.34858C186.996 6.34858 192.78 10.4311 192.78 15.4673C192.781 20.5029 186.997 24.5859 179.862 24.5859ZM179.862 0.372864C168.051 0.372864 158.477 7.13107 158.477 15.4678C158.477 23.8044 168.051 30.5627 179.862 30.5627C191.673 30.5627 201.247 23.8044 201.247 15.4678C201.247 7.13107 191.673 0.372864 179.862 0.372864ZM133.965 23.6148V1.5566H125.741V29.4179H157.001V23.6143H133.965V23.6148ZM99.9766 24.5859C92.8423 24.5859 87.0582 20.5034 87.0582 15.4673C87.0582 10.4311 92.8423 6.34858 99.9766 6.34858C107.111 6.34858 112.895 10.4311 112.895 15.4673C112.896 20.5029 107.111 24.5859 99.9766 24.5859ZM99.9766 0.372864C88.1664 0.372864 78.5916 7.13107 78.5916 15.4678C78.5916 23.8044 88.1664 30.5627 99.9766 30.5627C111.787 30.5627 121.362 23.8044 121.362 15.4678C121.362 7.13107 111.787 0.372864 99.9766 0.372864ZM48.5228 7.3442L63.7026 7.31718C65.7649 7.31718 67.4364 8.49892 67.4364 9.95683C67.4364 11.4152 65.7643 12.597 63.7026 12.597L48.5228 12.57V7.3442ZM63.7466 18.3731C64.6996 18.3731 65.5521 18.277 66.332 18.1149C71.6987 17.1903 75.6702 13.8893 75.6702 9.95683C75.6697 5.30893 70.1211 1.54109 63.2766 1.54109H40.2988V29.4019H48.5228V18.3731H54.3774L66.3407 29.4019H75.6697L63.7064 18.3731H63.7466ZM23.9766 12.613L8.79674 12.586V7.35971L23.9766 7.3327C26.0394 7.3327 27.7109 8.51443 27.7109 9.97234C27.7103 11.4317 26.0394 12.613 23.9766 12.613ZM23.5516 1.5566H0.573242V29.4179H8.79729V18.3886H24.0216C24.9746 18.3886 25.8272 18.293 26.6065 18.1304C31.9732 17.2063 35.9447 13.9053 35.9447 9.97284C35.9436 5.32444 30.3951 1.5566 23.5516 1.5566Z" fill="#25408F"/>
</svg>
