<svg width="34" height="34" viewBox="0 0 34 34" fill="none" xmlns="http://www.w3.org/2000/svg">
<path opacity="0.3" d="M2.41632 16.9986C2.41632 22.7708 5.77081 27.7591 10.6351 30.123L3.67887 11.0638C2.86973 12.8774 2.41632 14.8845 2.41632 16.9986ZM26.8437 16.2627C26.8437 14.4605 26.1963 13.2123 25.6411 12.2409C24.9019 11.0397 24.209 10.0224 24.209 8.82118C24.209 7.48066 25.2257 6.23282 26.6578 6.23282C26.7224 6.23282 26.7838 6.24087 26.8467 6.24447C24.2523 3.86756 20.7957 2.41632 16.9992 2.41632C11.9046 2.41632 7.42239 5.03021 4.81488 8.98934C5.15702 8.9996 5.47945 9.00682 5.75333 9.00682C7.27865 9.00682 9.63976 8.82174 9.63976 8.82174C10.4259 8.7754 10.5185 9.93 9.73327 10.023C9.73327 10.023 8.94327 10.1159 8.06421 10.162L13.3747 25.9577L16.566 16.3865L14.294 10.1614C13.5087 10.1154 12.7648 10.0224 12.7648 10.0224C11.9789 9.97634 12.0711 8.77484 12.8569 8.82118C12.8569 8.82118 15.2652 9.00626 16.6981 9.00626C18.2231 9.00626 20.5845 8.82118 20.5845 8.82118C21.3712 8.77484 21.4636 9.92945 20.678 10.0224C20.678 10.0224 19.8864 10.1154 19.009 10.1614L24.2789 25.8375L25.7335 20.9769C26.3639 18.9599 26.8437 17.5111 26.8437 16.2627ZM17.255 18.2742L12.8796 30.9882C14.186 31.3722 15.5676 31.5823 16.9992 31.5823C18.6974 31.5823 20.3259 31.2887 21.8418 30.7556C21.8027 30.6932 21.7671 30.6269 21.738 30.5548L17.255 18.2742ZM29.795 10.0021C29.8577 10.4667 29.8932 10.9653 29.8932 11.5017C29.8932 12.9815 29.6169 14.645 28.7844 16.725L24.33 29.6038C28.6654 27.0757 31.5814 22.3787 31.5814 16.9989C31.5817 14.4635 30.9341 12.0794 29.795 10.0021ZM16.9992 0C7.62606 0 0 7.62551 0 16.9986C0 26.3728 7.62606 33.998 16.9992 33.998C26.372 33.998 33.9991 26.3728 33.9991 16.9986C33.9989 7.62551 26.372 0 16.9992 0ZM16.9992 33.2189C8.05588 33.2189 0.77945 25.9424 0.77945 16.9986C0.77945 8.05533 8.05561 0.779449 16.9992 0.779449C25.9422 0.779449 33.218 8.05533 33.218 16.9986C33.218 25.9424 25.9422 33.2189 16.9992 33.2189Z" fill="#333333"/>
</svg>
